<svg width="1152" height="1010" viewBox="0 0 1152 1010" fill="none" xmlns="http://www.w3.org/2000/svg">
<g clip-path="url(#clip0_214_191)">
<path d="M1087.58 36.3782C1109.93 38.758 1121.34 70.423 1124 81H29C31.6606 70.423 45.0634 38.758 67.4124 36.3782C89.7612 33.9983 407.802 26.958 565.276 22H585.729C743.203 26.958 1065.23 33.9983 1087.58 36.3782Z" fill="#F8F8F6"/>
<path d="M984 864L938.152 1028H212.848L167 864H984Z" fill="#5A5A5A"/>
<g filter="url(#filter0_d_214_191)">
<path d="M27 89.159C27 75.6847 37.5737 64.6419 51.041 64.2072C130.958 61.628 392.743 53.6329 571 53.5C753.205 53.3641 1020.96 61.5726 1101.94 64.2014C1115.4 64.6385 1126 75.6809 1126 89.1526V864.952C1126 878.382 1115.48 889.404 1102.06 889.896C1021.74 892.835 756.841 902 576.5 902C396.159 902 131.261 892.835 50.9448 889.896C37.5242 889.404 27 878.382 27 864.952V89.159Z" fill="url(#paint0_linear_214_191)"/>
</g>
<path d="M1009 167.97V772.215C1009 775.456 1006.48 778.066 1003.3 778.195C950.461 780.33 726.666 789 576.5 789C426.334 789 202.539 780.33 149.698 778.195C146.519 778.066 144 775.456 144 772.215V167.973C144 164.726 146.57 162.082 149.797 161.986C202.612 160.415 423.7 154.107 572.115 154.001C723.776 153.893 949.834 160.383 1003.23 161.984C1006.44 162.08 1009 164.704 1009 167.97Z" fill="url(#paint1_linear_214_191)"/>
<path d="M1009 167.97V772.215C1009 775.456 1006.48 778.066 1003.3 778.195C950.461 780.33 726.666 789 576.5 789C426.334 789 202.539 780.33 149.698 778.195C146.519 778.066 144 775.456 144 772.215V167.973C144 164.726 146.57 162.082 149.797 161.986C202.612 160.415 423.7 154.107 572.115 154.001C723.776 153.893 949.834 160.383 1003.23 161.984C1006.44 162.08 1009 164.704 1009 167.97Z" fill="black" fill-opacity="0.53"/>
<path d="M1009 167.97V772.215C1009 775.456 1006.48 778.066 1003.3 778.195C950.461 780.33 726.666 789 576.5 789C426.334 789 202.539 780.33 149.698 778.195C146.519 778.066 144 775.456 144 772.215V167.973C144 164.726 146.57 162.082 149.797 161.986C202.612 160.415 423.7 154.107 572.115 154.001C723.776 153.893 949.834 160.383 1003.23 161.984C1006.44 162.08 1009 164.704 1009 167.97Z" stroke="url(#paint2_radial_214_191)" stroke-width="12" stroke-linejoin="round"/>
<path d="M1009 167.97V772.215C1009 775.456 1006.48 778.066 1003.3 778.195C950.461 780.33 726.666 789 576.5 789C426.334 789 202.539 780.33 149.698 778.195C146.519 778.066 144 775.456 144 772.215V167.973C144 164.726 146.57 162.082 149.797 161.986C202.612 160.415 423.7 154.107 572.115 154.001C723.776 153.893 949.834 160.383 1003.23 161.984C1006.44 162.08 1009 164.704 1009 167.97Z" stroke="#CFCFCF" stroke-opacity="0.2" stroke-width="12" stroke-linejoin="round"/>
<path d="M1009 167.97V772.215C1009 775.456 1006.48 778.066 1003.3 778.195C950.461 780.33 726.666 789 576.5 789C426.334 789 202.539 780.33 149.698 778.195C146.519 778.066 144 775.456 144 772.215V167.973C144 164.726 146.57 162.082 149.797 161.986C202.612 160.415 423.7 154.107 572.115 154.001C723.776 153.893 949.834 160.383 1003.23 161.984C1006.44 162.08 1009 164.704 1009 167.97Z" stroke="url(#paint3_linear_214_191)" stroke-opacity="0.2" stroke-width="12" stroke-linejoin="round"/>
<g filter="url(#filter1_i_214_191)">
<rect x="222.485" y="818.308" width="19" height="38" rx="1" transform="rotate(1.39941 222.485 818.308)" fill="#B8B7B1"/>
</g>
<g filter="url(#filter2_i_214_191)">
<path d="M235.668 845.767L236.11 827.644L238.653 827.706L238.14 848.7L235.816 848.643L235.668 845.767ZM225.824 841.164L225.831 840.877C225.859 839.747 226.02 838.726 226.316 837.812C226.621 836.89 227.037 836.102 227.564 835.449C228.099 834.797 228.727 834.301 229.446 833.963C230.175 833.617 230.981 833.454 231.865 833.476C232.795 833.498 233.602 833.682 234.286 834.027C234.98 834.363 235.561 834.847 236.028 835.478C236.506 836.101 236.875 836.848 237.136 837.721C237.397 838.593 237.569 839.578 237.652 840.674L237.621 841.931C237.495 843.013 237.275 843.983 236.962 844.842C236.659 845.7 236.253 846.429 235.746 847.027C235.248 847.626 234.645 848.081 233.935 848.392C233.226 848.694 232.402 848.833 231.463 848.81C230.598 848.789 229.809 848.583 229.099 848.192C228.397 847.801 227.795 847.262 227.292 846.575C226.798 845.888 226.421 845.086 226.161 844.168C225.91 843.241 225.798 842.239 225.824 841.164ZM228.373 840.939L228.366 841.226C228.348 841.964 228.404 842.659 228.534 843.309C228.673 843.96 228.896 844.535 229.203 845.035C229.51 845.535 229.906 845.932 230.391 846.227C230.877 846.512 231.461 846.663 232.144 846.68C232.983 846.7 233.675 846.539 234.221 846.197C234.777 845.855 235.225 845.396 235.568 844.821C235.91 844.246 236.181 843.619 236.38 842.94L236.46 839.646C236.363 839.142 236.215 838.656 236.017 838.186C235.828 837.707 235.574 837.281 235.255 836.909C234.945 836.528 234.556 836.222 234.088 835.992C233.628 835.761 233.08 835.639 232.442 835.623C231.749 835.606 231.149 835.737 230.641 836.017C230.142 836.287 229.727 836.669 229.396 837.162C229.065 837.647 228.814 838.215 228.643 838.867C228.481 839.511 228.391 840.201 228.373 840.939Z" fill="#D9D9D9"/>
</g>
<g filter="url(#filter3_i_214_191)">
<rect x="242.479" y="818.797" width="19" height="38" rx="1" transform="rotate(1.39941 242.479 818.797)" fill="#B8B7B1"/>
</g>
<g filter="url(#filter4_i_214_191)">
<path d="M253.875 834.287L253.514 849.075L250.972 849.013L251.333 834.225L253.875 834.287ZM251.238 830.297C251.248 829.887 251.379 829.544 251.632 829.268C251.894 828.991 252.271 828.859 252.763 828.871C253.246 828.883 253.612 829.033 253.86 829.322C254.117 829.611 254.241 829.96 254.231 830.37C254.221 830.762 254.081 831.096 253.81 831.372C253.548 831.639 253.176 831.767 252.693 831.755C252.201 831.743 251.831 831.597 251.582 831.318C251.343 831.029 251.228 830.689 251.238 830.297Z" fill="#D9D9D9"/>
</g>
<g filter="url(#filter5_i_214_191)">
<rect x="262.473" y="819.285" width="19" height="38" rx="1" transform="rotate(1.39941 262.473 819.285)" fill="#B8B7B1"/>
</g>
<g filter="url(#filter6_i_214_191)">
<path d="M276.248 834.833L278.544 834.889L278.19 849.364C278.158 850.667 277.867 851.772 277.316 852.679C276.765 853.587 276.01 854.266 275.051 854.716C274.1 855.176 273.01 855.391 271.78 855.361C271.27 855.349 270.67 855.252 269.982 855.071C269.302 854.899 268.635 854.614 267.979 854.215C267.332 853.826 266.793 853.306 266.362 852.658L267.725 851.187C268.326 851.949 268.96 852.484 269.627 852.792C270.304 853.1 270.974 853.263 271.639 853.279C272.441 853.299 273.137 853.165 273.728 852.879C274.319 852.592 274.78 852.157 275.114 851.572C275.456 850.997 275.638 850.281 275.659 849.425L275.936 838.081L276.248 834.833ZM265.88 842.143L265.887 841.856C265.915 840.726 266.072 839.704 266.359 838.79C266.655 837.867 267.062 837.08 267.579 836.427C268.106 835.774 268.733 835.279 269.462 834.941C270.19 834.594 271.006 834.432 271.908 834.454C272.837 834.476 273.644 834.66 274.329 835.005C275.023 835.341 275.603 835.825 276.071 836.456C276.548 837.079 276.918 837.826 277.179 838.699C277.44 839.571 277.612 840.556 277.695 841.652L277.664 842.909C277.537 843.991 277.318 844.961 277.005 845.82C276.701 846.679 276.296 847.407 275.789 848.006C275.291 848.604 274.687 849.059 273.978 849.37C273.268 849.672 272.444 849.811 271.506 849.788C270.622 849.767 269.825 849.56 269.114 849.169C268.412 848.778 267.815 848.239 267.321 847.553C266.827 846.866 266.455 846.064 266.204 845.146C265.962 844.219 265.854 843.218 265.88 842.143ZM268.416 841.918L268.409 842.205C268.391 842.943 268.447 843.637 268.577 844.287C268.716 844.938 268.934 845.513 269.232 846.013C269.539 846.513 269.935 846.91 270.42 847.204C270.906 847.49 271.49 847.641 272.173 847.658C273.012 847.678 273.709 847.517 274.264 847.175C274.819 846.833 275.264 846.375 275.597 845.799C275.939 845.224 276.21 844.597 276.409 843.918L276.489 840.624C276.401 840.121 276.258 839.634 276.06 839.164C275.871 838.685 275.617 838.26 275.298 837.887C274.988 837.506 274.599 837.2 274.13 836.97C273.662 836.739 273.109 836.617 272.471 836.601C271.778 836.584 271.178 836.715 270.67 836.995C270.171 837.265 269.756 837.647 269.425 838.14C269.103 838.625 268.856 839.193 268.685 839.845C268.524 840.489 268.434 841.18 268.416 841.918Z" fill="#D9D9D9"/>
</g>
<g filter="url(#filter7_i_214_191)">
<rect x="282.467" y="819.774" width="19" height="38" rx="1" transform="rotate(1.39941 282.467 819.774)" fill="#B8B7B1"/>
</g>
<g filter="url(#filter8_i_214_191)">
<path d="M293.864 835.264L293.502 850.052L290.96 849.99L291.321 835.202L293.864 835.264ZM291.226 831.274C291.236 830.864 291.367 830.521 291.62 830.244C291.882 829.968 292.259 829.836 292.751 829.848C293.234 829.86 293.6 830.01 293.848 830.299C294.105 830.588 294.229 830.937 294.219 831.347C294.209 831.739 294.069 832.073 293.798 832.349C293.536 832.616 293.164 832.744 292.681 832.732C292.189 832.72 291.819 832.574 291.57 832.295C291.331 832.006 291.216 831.666 291.226 831.274Z" fill="#D9D9D9"/>
</g>
<g filter="url(#filter9_i_214_191)">
<rect x="302.461" y="820.262" width="19" height="38" rx="1" transform="rotate(1.39941 302.461 820.262)" fill="#B8B7B1"/>
</g>
<g filter="url(#filter10_i_214_191)">
<path d="M316.126 835.807L316.079 837.748L308.083 837.553L308.131 835.612L316.126 835.807ZM310.925 832.084L313.453 832.145L313.094 846.866C313.081 847.367 313.15 847.747 313.298 848.006C313.447 848.265 313.643 848.438 313.887 848.526C314.131 848.614 314.395 848.662 314.677 848.668C314.887 848.674 315.106 848.661 315.334 848.63C315.572 848.59 315.751 848.558 315.87 848.534L315.833 850.598C315.631 850.657 315.366 850.709 315.036 850.756C314.716 850.812 314.328 850.834 313.872 850.823C313.253 850.808 312.686 850.671 312.173 850.413C311.659 850.154 311.255 849.734 310.959 849.152C310.673 848.562 310.541 847.774 310.565 846.79L310.925 832.084Z" fill="#D9D9D9"/>
</g>
<g filter="url(#filter11_i_214_191)">
<rect x="322.455" y="820.751" width="19" height="38" rx="1" transform="rotate(1.39941 322.455 820.751)" fill="#B8B7B1"/>
</g>
<g filter="url(#filter12_i_214_191)">
<path d="M335.315 848.544L335.501 840.931C335.515 840.347 335.409 839.839 335.183 839.405C334.966 838.962 334.628 838.616 334.169 838.368C333.71 838.12 333.139 837.987 332.455 837.971C331.818 837.955 331.254 838.051 330.766 838.258C330.287 838.465 329.906 838.743 329.624 839.091C329.352 839.44 329.21 839.82 329.2 840.23L326.671 840.168C326.684 839.639 326.834 839.119 327.12 838.606C327.406 838.093 327.809 837.634 328.33 837.227C328.86 836.811 329.487 836.489 330.213 836.261C330.948 836.024 331.763 835.916 332.655 835.938C333.731 835.964 334.674 836.169 335.485 836.554C336.305 836.939 336.939 837.506 337.385 838.255C337.841 838.996 338.056 839.917 338.029 841.02L337.861 847.908C337.849 848.4 337.877 848.925 337.945 849.483C338.023 850.041 338.143 850.523 338.307 850.928L338.301 851.147L335.663 851.082C335.543 850.787 335.452 850.398 335.391 849.913C335.33 849.419 335.305 848.963 335.315 848.544ZM335.91 842.117L335.894 843.894L333.338 843.832C332.618 843.814 331.974 843.858 331.406 843.962C330.839 844.058 330.361 844.215 329.973 844.433C329.584 844.652 329.286 844.932 329.077 845.273C328.868 845.605 328.758 845.999 328.747 846.455C328.736 846.92 328.83 847.346 329.03 847.734C329.231 848.121 329.538 848.434 329.951 848.672C330.374 848.902 330.895 849.024 331.515 849.039C332.289 849.058 332.977 848.91 333.577 848.597C334.177 848.283 334.656 847.894 335.014 847.428C335.381 846.963 335.584 846.508 335.622 846.062L336.672 847.305C336.599 847.686 336.415 848.105 336.122 848.563C335.828 849.021 335.439 849.458 334.954 849.875C334.48 850.283 333.915 850.62 333.261 850.887C332.617 851.144 331.894 851.264 331.092 851.244C330.089 851.22 329.215 851.002 328.468 850.592C327.731 850.182 327.16 849.644 326.757 848.977C326.363 848.302 326.176 847.554 326.197 846.734C326.216 845.942 326.388 845.248 326.712 844.655C327.037 844.052 327.496 843.557 328.089 843.17C328.682 842.774 329.391 842.482 330.216 842.292C331.042 842.103 331.96 842.02 332.971 842.045L335.91 842.117Z" fill="#D9D9D9"/>
</g>
<g filter="url(#filter13_i_214_191)">
<rect x="342.449" y="821.239" width="19" height="38" rx="1" transform="rotate(1.39941 342.449 821.239)" fill="#B8B7B1"/>
</g>
<g filter="url(#filter14_i_214_191)">
<path d="M353.997 830.524L353.484 851.518L350.942 851.455L351.455 830.462L353.997 830.524Z" fill="#D9D9D9"/>
</g>
<path d="M386.538 840.54C387.266 839.671 387.802 839.014 388.147 838.567C388.505 838.107 388.684 837.749 388.684 837.494C388.684 837.302 388.575 837.174 388.358 837.111C388.141 837.047 387.809 837.015 387.362 837.015L387.553 836.248H392.515L392.324 837.015C392.017 837.015 391.711 837.072 391.404 837.187C391.11 837.302 390.778 837.5 390.408 837.781C390.05 838.062 389.648 838.439 389.201 838.911C388.754 839.384 388.243 839.971 387.668 840.674L379.028 851.192H377.419L380.082 839.429C380.235 838.764 380.312 838.273 380.312 837.953C380.312 837.583 380.19 837.334 379.948 837.206C379.705 837.079 379.232 837.015 378.53 837.015L378.721 836.248H384.392L384.201 837.015C383.83 837.015 383.524 837.047 383.281 837.111C383.038 837.162 382.834 837.277 382.668 837.455C382.502 837.621 382.361 837.864 382.247 838.183C382.144 838.503 382.036 838.924 381.921 839.448L379.986 848.28H380.063L386.538 840.54ZM397.514 847.781C397.438 848.075 397.368 848.331 397.304 848.548C397.24 848.752 397.208 848.944 397.208 849.123C397.208 849.531 397.374 849.819 397.706 849.985C398.038 850.151 398.606 850.234 399.411 850.234L399.181 851H392.514L392.725 850.234C393.108 850.234 393.44 850.208 393.721 850.157C394.002 850.106 394.251 850.004 394.468 849.851C394.698 849.697 394.89 849.474 395.043 849.18C395.209 848.873 395.362 848.471 395.503 847.973L397.84 839.237C397.955 838.777 398.013 838.394 398.013 838.088C398.013 837.717 397.93 837.455 397.764 837.302C397.597 837.136 397.329 837.053 396.959 837.053C395.835 837.053 394.858 837.34 394.028 837.915C393.21 838.49 392.527 839.295 391.978 840.329H391.212L393.032 836.248H405.829L405.446 840.329H404.718C404.718 839.103 404.488 838.254 404.028 837.781C403.581 837.296 402.911 837.053 402.017 837.053C401.697 837.053 401.423 837.085 401.193 837.149C400.976 837.213 400.778 837.328 400.599 837.494C400.433 837.66 400.28 837.89 400.139 838.183C400.011 838.477 399.89 838.854 399.775 839.314L397.514 847.781ZM412.377 844.371H414.733L414.446 845.54H412.09L410.768 851H408.775L410.155 845.54H404.503L404.752 844.563L413.661 836.057H414.503L412.377 844.371ZM410.48 844.371L411.86 839.352L411.802 839.333L406.495 844.371H410.48ZM418.304 849.123H422.212C422.518 849.123 422.787 849.103 423.016 849.065C423.259 849.014 423.476 848.937 423.668 848.835C423.872 848.72 424.057 848.573 424.223 848.395C424.389 848.203 424.562 847.967 424.741 847.686H425.45L424.243 851H415.353L415.526 849.985C417.122 848.707 418.47 847.571 419.568 846.575C420.679 845.566 421.573 844.652 422.25 843.835C422.94 843.005 423.432 842.245 423.725 841.555C424.032 840.853 424.185 840.169 424.185 839.505C424.185 838.764 423.994 838.171 423.61 837.724C423.227 837.277 422.697 837.053 422.02 837.053C421.65 837.053 421.299 837.123 420.967 837.264C420.647 837.404 420.366 837.596 420.124 837.839C419.881 838.068 419.689 838.343 419.549 838.662C419.421 838.982 419.357 839.32 419.357 839.678C419.357 840.252 419.511 840.699 419.817 841.019C420.136 841.338 420.583 841.498 421.158 841.498C421.043 841.817 420.839 842.066 420.545 842.245C420.251 842.424 419.907 842.513 419.511 842.513C418.885 842.513 418.38 842.296 417.997 841.862C417.614 841.427 417.422 840.859 417.422 840.157C417.422 839.582 417.55 839.045 417.806 838.547C418.074 838.049 418.431 837.615 418.878 837.245C419.338 836.874 419.868 836.58 420.468 836.363C421.082 836.146 421.733 836.038 422.423 836.038C423.023 836.038 423.572 836.121 424.07 836.287C424.568 836.453 424.99 836.689 425.335 836.996C425.692 837.302 425.967 837.672 426.158 838.107C426.35 838.541 426.446 839.026 426.446 839.563C426.446 840.214 426.292 840.878 425.986 841.555C425.692 842.232 425.22 842.947 424.568 843.701C423.917 844.454 423.074 845.272 422.039 846.153C421.018 847.022 419.772 847.979 418.304 849.027V849.123ZM432.097 851.192C431.548 851.192 431.05 851.07 430.603 850.828C430.156 850.572 429.773 850.221 429.454 849.774C429.134 849.327 428.885 848.79 428.706 848.165C428.528 847.526 428.438 846.824 428.438 846.057C428.438 844.831 428.643 843.624 429.051 842.436C429.46 841.236 429.996 840.163 430.66 839.218C431.337 838.273 432.091 837.513 432.921 836.938C433.764 836.351 434.62 836.057 435.488 836.057C436.037 836.057 436.536 836.178 436.983 836.421C437.442 836.651 437.832 836.983 438.151 837.417C438.471 837.839 438.72 838.349 438.898 838.95C439.077 839.55 439.167 840.214 439.167 840.942C439.167 841.747 439.071 842.564 438.879 843.394C438.688 844.212 438.419 845.004 438.075 845.77C437.743 846.523 437.347 847.232 436.887 847.896C436.427 848.548 435.935 849.123 435.412 849.621C434.888 850.106 434.345 850.489 433.783 850.77C433.221 851.051 432.659 851.192 432.097 851.192ZM435.297 837.053C434.926 837.053 434.55 837.2 434.166 837.494C433.796 837.787 433.432 838.19 433.074 838.701C432.73 839.199 432.404 839.793 432.097 840.482C431.791 841.159 431.523 841.887 431.293 842.666C431.076 843.445 430.897 844.256 430.756 845.099C430.629 845.93 430.565 846.753 430.565 847.571C430.565 848.401 430.718 849.046 431.024 849.506C431.331 849.953 431.772 850.176 432.346 850.176C432.717 850.176 433.087 850.029 433.458 849.736C433.828 849.442 434.186 849.04 434.53 848.529C434.875 848.018 435.201 847.424 435.507 846.747C435.814 846.057 436.076 845.316 436.293 844.525C436.523 843.733 436.702 842.915 436.829 842.072C436.957 841.217 437.021 840.374 437.021 839.544C437.021 838.739 436.874 838.126 436.58 837.704C436.287 837.27 435.859 837.053 435.297 837.053Z" fill="black" fill-opacity="0.44"/>
</g>
<defs>
<filter id="filter0_d_214_191" x="23" y="53.4983" width="1107" height="896.502" filterUnits="userSpaceOnUse" color-interpolation-filters="sRGB">
<feFlood flood-opacity="0" result="BackgroundImageFix"/>
<feColorMatrix in="SourceAlpha" type="matrix" values="0 0 0 0 0 0 0 0 0 0 0 0 0 0 0 0 0 0 127 0" result="hardAlpha"/>
<feOffset dy="44"/>
<feGaussianBlur stdDeviation="2"/>
<feComposite in2="hardAlpha" operator="out"/>
<feColorMatrix type="matrix" values="0 0 0 0 0 0 0 0 0 0 0 0 0 0 0 0 0 0 0.25 0"/>
<feBlend mode="normal" in2="BackgroundImageFix" result="effect1_dropShadow_214_191"/>
<feBlend mode="normal" in="SourceGraphic" in2="effect1_dropShadow_214_191" result="shape"/>
</filter>
<filter id="filter1_i_214_191" x="221.581" y="818.332" width="19.874" height="38.4044" filterUnits="userSpaceOnUse" color-interpolation-filters="sRGB">
<feFlood flood-opacity="0" result="BackgroundImageFix"/>
<feBlend mode="normal" in="SourceGraphic" in2="BackgroundImageFix" result="shape"/>
<feColorMatrix in="SourceAlpha" type="matrix" values="0 0 0 0 0 0 0 0 0 0 0 0 0 0 0 0 0 0 127 0" result="hardAlpha"/>
<feOffset dx="1" dy="2"/>
<feComposite in2="hardAlpha" operator="arithmetic" k2="-1" k3="1"/>
<feColorMatrix type="matrix" values="0 0 0 0 0 0 0 0 0 0 0 0 0 0 0 0 0 0 0.25 0"/>
<feBlend mode="normal" in2="shape" result="effect1_innerShadow_214_191"/>
</filter>
<filter id="filter2_i_214_191" x="225.641" y="827.401" width="13.012" height="23.5723" filterUnits="userSpaceOnUse" color-interpolation-filters="sRGB">
<feFlood flood-opacity="0" result="BackgroundImageFix"/>
<feBlend mode="normal" in="SourceGraphic" in2="BackgroundImageFix" result="shape"/>
<feColorMatrix in="SourceAlpha" type="matrix" values="0 0 0 0 0 0 0 0 0 0 0 0 0 0 0 0 0 0 127 0" result="hardAlpha"/>
<feOffset dy="2"/>
<feGaussianBlur stdDeviation="1"/>
<feComposite in2="hardAlpha" operator="arithmetic" k2="-1" k3="1"/>
<feColorMatrix type="matrix" values="0 0 0 0 0 0 0 0 0 0 0 0 0 0 0 0 0 0 0.25 0"/>
<feBlend mode="normal" in2="shape" result="effect1_innerShadow_214_191"/>
</filter>
<filter id="filter3_i_214_191" x="241.575" y="818.821" width="19.874" height="38.4044" filterUnits="userSpaceOnUse" color-interpolation-filters="sRGB">
<feFlood flood-opacity="0" result="BackgroundImageFix"/>
<feBlend mode="normal" in="SourceGraphic" in2="BackgroundImageFix" result="shape"/>
<feColorMatrix in="SourceAlpha" type="matrix" values="0 0 0 0 0 0 0 0 0 0 0 0 0 0 0 0 0 0 127 0" result="hardAlpha"/>
<feOffset dx="1" dy="2"/>
<feComposite in2="hardAlpha" operator="arithmetic" k2="-1" k3="1"/>
<feColorMatrix type="matrix" values="0 0 0 0 0 0 0 0 0 0 0 0 0 0 0 0 0 0 0.25 0"/>
<feBlend mode="normal" in2="shape" result="effect1_innerShadow_214_191"/>
</filter>
<filter id="filter4_i_214_191" x="250.781" y="828.835" width="3.48608" height="22.2468" filterUnits="userSpaceOnUse" color-interpolation-filters="sRGB">
<feFlood flood-opacity="0" result="BackgroundImageFix"/>
<feBlend mode="normal" in="SourceGraphic" in2="BackgroundImageFix" result="shape"/>
<feColorMatrix in="SourceAlpha" type="matrix" values="0 0 0 0 0 0 0 0 0 0 0 0 0 0 0 0 0 0 127 0" result="hardAlpha"/>
<feOffset dy="2"/>
<feGaussianBlur stdDeviation="1"/>
<feComposite in2="hardAlpha" operator="arithmetic" k2="-1" k3="1"/>
<feColorMatrix type="matrix" values="0 0 0 0 0 0 0 0 0 0 0 0 0 0 0 0 0 0 0.25 0"/>
<feBlend mode="normal" in2="shape" result="effect1_innerShadow_214_191"/>
</filter>
<filter id="filter5_i_214_191" x="261.569" y="819.309" width="19.874" height="38.4044" filterUnits="userSpaceOnUse" color-interpolation-filters="sRGB">
<feFlood flood-opacity="0" result="BackgroundImageFix"/>
<feBlend mode="normal" in="SourceGraphic" in2="BackgroundImageFix" result="shape"/>
<feColorMatrix in="SourceAlpha" type="matrix" values="0 0 0 0 0 0 0 0 0 0 0 0 0 0 0 0 0 0 127 0" result="hardAlpha"/>
<feOffset dx="1" dy="2"/>
<feComposite in2="hardAlpha" operator="arithmetic" k2="-1" k3="1"/>
<feColorMatrix type="matrix" values="0 0 0 0 0 0 0 0 0 0 0 0 0 0 0 0 0 0 0.25 0"/>
<feBlend mode="normal" in2="shape" result="effect1_innerShadow_214_191"/>
</filter>
<filter id="filter6_i_214_191" x="265.561" y="834.311" width="12.9893" height="23.2029" filterUnits="userSpaceOnUse" color-interpolation-filters="sRGB">
<feFlood flood-opacity="0" result="BackgroundImageFix"/>
<feBlend mode="normal" in="SourceGraphic" in2="BackgroundImageFix" result="shape"/>
<feColorMatrix in="SourceAlpha" type="matrix" values="0 0 0 0 0 0 0 0 0 0 0 0 0 0 0 0 0 0 127 0" result="hardAlpha"/>
<feOffset dy="2"/>
<feGaussianBlur stdDeviation="1"/>
<feComposite in2="hardAlpha" operator="arithmetic" k2="-1" k3="1"/>
<feColorMatrix type="matrix" values="0 0 0 0 0 0 0 0 0 0 0 0 0 0 0 0 0 0 0.25 0"/>
<feBlend mode="normal" in2="shape" result="effect1_innerShadow_214_191"/>
</filter>
<filter id="filter7_i_214_191" x="281.563" y="819.798" width="19.874" height="38.4044" filterUnits="userSpaceOnUse" color-interpolation-filters="sRGB">
<feFlood flood-opacity="0" result="BackgroundImageFix"/>
<feBlend mode="normal" in="SourceGraphic" in2="BackgroundImageFix" result="shape"/>
<feColorMatrix in="SourceAlpha" type="matrix" values="0 0 0 0 0 0 0 0 0 0 0 0 0 0 0 0 0 0 127 0" result="hardAlpha"/>
<feOffset dx="1" dy="2"/>
<feComposite in2="hardAlpha" operator="arithmetic" k2="-1" k3="1"/>
<feColorMatrix type="matrix" values="0 0 0 0 0 0 0 0 0 0 0 0 0 0 0 0 0 0 0.25 0"/>
<feBlend mode="normal" in2="shape" result="effect1_innerShadow_214_191"/>
</filter>
<filter id="filter8_i_214_191" x="290.769" y="829.812" width="3.48608" height="22.2468" filterUnits="userSpaceOnUse" color-interpolation-filters="sRGB">
<feFlood flood-opacity="0" result="BackgroundImageFix"/>
<feBlend mode="normal" in="SourceGraphic" in2="BackgroundImageFix" result="shape"/>
<feColorMatrix in="SourceAlpha" type="matrix" values="0 0 0 0 0 0 0 0 0 0 0 0 0 0 0 0 0 0 127 0" result="hardAlpha"/>
<feOffset dy="2"/>
<feGaussianBlur stdDeviation="1"/>
<feComposite in2="hardAlpha" operator="arithmetic" k2="-1" k3="1"/>
<feColorMatrix type="matrix" values="0 0 0 0 0 0 0 0 0 0 0 0 0 0 0 0 0 0 0.25 0"/>
<feBlend mode="normal" in2="shape" result="effect1_innerShadow_214_191"/>
</filter>
<filter id="filter9_i_214_191" x="301.557" y="820.286" width="19.874" height="38.4044" filterUnits="userSpaceOnUse" color-interpolation-filters="sRGB">
<feFlood flood-opacity="0" result="BackgroundImageFix"/>
<feBlend mode="normal" in="SourceGraphic" in2="BackgroundImageFix" result="shape"/>
<feColorMatrix in="SourceAlpha" type="matrix" values="0 0 0 0 0 0 0 0 0 0 0 0 0 0 0 0 0 0 127 0" result="hardAlpha"/>
<feOffset dx="1" dy="2"/>
<feComposite in2="hardAlpha" operator="arithmetic" k2="-1" k3="1"/>
<feColorMatrix type="matrix" values="0 0 0 0 0 0 0 0 0 0 0 0 0 0 0 0 0 0 0.25 0"/>
<feBlend mode="normal" in2="shape" result="effect1_innerShadow_214_191"/>
</filter>
<filter id="filter10_i_214_191" x="307.763" y="832.018" width="8.51978" height="20.8535" filterUnits="userSpaceOnUse" color-interpolation-filters="sRGB">
<feFlood flood-opacity="0" result="BackgroundImageFix"/>
<feBlend mode="normal" in="SourceGraphic" in2="BackgroundImageFix" result="shape"/>
<feColorMatrix in="SourceAlpha" type="matrix" values="0 0 0 0 0 0 0 0 0 0 0 0 0 0 0 0 0 0 127 0" result="hardAlpha"/>
<feOffset dy="2"/>
<feGaussianBlur stdDeviation="1"/>
<feComposite in2="hardAlpha" operator="arithmetic" k2="-1" k3="1"/>
<feColorMatrix type="matrix" values="0 0 0 0 0 0 0 0 0 0 0 0 0 0 0 0 0 0 0.25 0"/>
<feBlend mode="normal" in2="shape" result="effect1_innerShadow_214_191"/>
</filter>
<filter id="filter11_i_214_191" x="321.551" y="820.775" width="19.874" height="38.4044" filterUnits="userSpaceOnUse" color-interpolation-filters="sRGB">
<feFlood flood-opacity="0" result="BackgroundImageFix"/>
<feBlend mode="normal" in="SourceGraphic" in2="BackgroundImageFix" result="shape"/>
<feColorMatrix in="SourceAlpha" type="matrix" values="0 0 0 0 0 0 0 0 0 0 0 0 0 0 0 0 0 0 127 0" result="hardAlpha"/>
<feOffset dx="1" dy="2"/>
<feComposite in2="hardAlpha" operator="arithmetic" k2="-1" k3="1"/>
<feColorMatrix type="matrix" values="0 0 0 0 0 0 0 0 0 0 0 0 0 0 0 0 0 0 0.25 0"/>
<feBlend mode="normal" in2="shape" result="effect1_innerShadow_214_191"/>
</filter>
<filter id="filter12_i_214_191" x="326.089" y="835.787" width="12.5798" height="17.6334" filterUnits="userSpaceOnUse" color-interpolation-filters="sRGB">
<feFlood flood-opacity="0" result="BackgroundImageFix"/>
<feBlend mode="normal" in="SourceGraphic" in2="BackgroundImageFix" result="shape"/>
<feColorMatrix in="SourceAlpha" type="matrix" values="0 0 0 0 0 0 0 0 0 0 0 0 0 0 0 0 0 0 127 0" result="hardAlpha"/>
<feOffset dy="2"/>
<feGaussianBlur stdDeviation="1"/>
<feComposite in2="hardAlpha" operator="arithmetic" k2="-1" k3="1"/>
<feColorMatrix type="matrix" values="0 0 0 0 0 0 0 0 0 0 0 0 0 0 0 0 0 0 0.25 0"/>
<feBlend mode="normal" in2="shape" result="effect1_innerShadow_214_191"/>
</filter>
<filter id="filter13_i_214_191" x="341.545" y="821.263" width="19.874" height="38.4044" filterUnits="userSpaceOnUse" color-interpolation-filters="sRGB">
<feFlood flood-opacity="0" result="BackgroundImageFix"/>
<feBlend mode="normal" in="SourceGraphic" in2="BackgroundImageFix" result="shape"/>
<feColorMatrix in="SourceAlpha" type="matrix" values="0 0 0 0 0 0 0 0 0 0 0 0 0 0 0 0 0 0 127 0" result="hardAlpha"/>
<feOffset dx="1" dy="2"/>
<feComposite in2="hardAlpha" operator="arithmetic" k2="-1" k3="1"/>
<feColorMatrix type="matrix" values="0 0 0 0 0 0 0 0 0 0 0 0 0 0 0 0 0 0 0.25 0"/>
<feBlend mode="normal" in2="shape" result="effect1_innerShadow_214_191"/>
</filter>
<filter id="filter14_i_214_191" x="350.942" y="830.462" width="3.05518" height="23.0558" filterUnits="userSpaceOnUse" color-interpolation-filters="sRGB">
<feFlood flood-opacity="0" result="BackgroundImageFix"/>
<feBlend mode="normal" in="SourceGraphic" in2="BackgroundImageFix" result="shape"/>
<feColorMatrix in="SourceAlpha" type="matrix" values="0 0 0 0 0 0 0 0 0 0 0 0 0 0 0 0 0 0 127 0" result="hardAlpha"/>
<feOffset dy="2"/>
<feGaussianBlur stdDeviation="1"/>
<feComposite in2="hardAlpha" operator="arithmetic" k2="-1" k3="1"/>
<feColorMatrix type="matrix" values="0 0 0 0 0 0 0 0 0 0 0 0 0 0 0 0 0 0 0.25 0"/>
<feBlend mode="normal" in2="shape" result="effect1_innerShadow_214_191"/>
</filter>
<linearGradient id="paint0_linear_214_191" x1="576.5" y1="53.4983" x2="576.5" y2="902" gradientUnits="userSpaceOnUse">
<stop stop-color="#E8E5D3"/>
<stop offset="1" stop-color="#B6B5B0"/>
</linearGradient>
<linearGradient id="paint1_linear_214_191" x1="576.5" y1="148" x2="576.5" y2="795" gradientUnits="userSpaceOnUse">
<stop stop-color="#20282A"/>
<stop offset="0.0853507" stop-color="#283139"/>
<stop offset="0.113396" stop-color="#283038" stop-opacity="0.909553"/>
<stop offset="0.225579" stop-color="#4E626B"/>
<stop offset="1" stop-color="#314045"/>
</linearGradient>
<radialGradient id="paint2_radial_214_191" cx="0" cy="0" r="1" gradientUnits="userSpaceOnUse" gradientTransform="translate(776 114) rotate(114.58) scale(451.957 570.161)">
<stop stop-color="#3A362F"/>
<stop offset="1" stop-color="#775421" stop-opacity="0"/>
</radialGradient>
<linearGradient id="paint3_linear_214_191" x1="577" y1="827" x2="577" y2="779" gradientUnits="userSpaceOnUse">
<stop stop-color="white"/>
<stop offset="1" stop-color="white" stop-opacity="0.47"/>
</linearGradient>
<clipPath id="clip0_214_191">
<rect width="1152" height="1010" fill="white"/>
</clipPath>
</defs>
</svg>
